<svg viewBox="0 0 24 24">
    <path d="M1.3128 18.2727L11.8483 21.7849C11.9468 21.8176 12.0532 21.8176 12.1517 21.7849L22.6872 18.2727C23.0697 18.1457 23.4024 17.9013 23.638 17.5744C23.8737 17.2475 24.0004 16.8546 24 16.4516V4.12709C23.9999 3.82289 23.9276 3.52305 23.789 3.25229C23.6503 2.98152 23.4493 2.74758 23.2025 2.56973C22.9557 2.39189 22.6702 2.27523 22.3694 2.22937C22.0687 2.18351 21.7614 2.20977 21.4728 2.30597L12 5.46341L2.5272 2.30597C2.23861 2.20977 1.93129 2.18351 1.63056 2.22937C1.32984 2.27523 1.04431 2.39189 0.797512 2.56973C0.550712 2.74758 0.349703 2.98152 0.211046 3.25229C0.0723895 3.52305 5.42927e-05 3.82289 7.89134e-07 4.12709V16.4516C-0.000364771 16.8546 0.126286 17.2475 0.361957 17.5744C0.597628 17.9013 0.930333 18.1457 1.3128 18.2727V18.2727ZM12.48 6.31541L21.7766 3.21653C21.9209 3.16848 22.0746 3.15538 22.2249 3.17834C22.3752 3.20129 22.5179 3.25962 22.6413 3.34854C22.7647 3.43746 22.8652 3.55441 22.9345 3.68977C23.0038 3.82513 23.04 3.97502 23.04 4.12709V16.4516C23.0402 16.6533 22.9769 16.85 22.8591 17.0137C22.7412 17.1774 22.5748 17.2998 22.3834 17.3636L12.48 20.6631V6.31541ZM0.960001 4.12709C0.959812 3.9749 0.995811 3.82484 1.06503 3.68929C1.13425 3.55375 1.2347 3.4366 1.3581 3.34752C1.4815 3.25844 1.62432 3.19998 1.77476 3.17695C1.9252 3.15392 2.07896 3.167 2.22336 3.21509L11.52 6.31541V20.6631L1.61616 17.3621C1.42509 17.2984 1.25891 17.1761 1.14115 17.0127C1.02339 16.8493 0.960019 16.653 0.960001 16.4516V4.12709ZM3.51168 6.16133L9.27168 8.08133C9.38064 8.11675 9.47334 8.18997 9.53302 8.28776C9.59271 8.38555 9.61545 8.50147 9.59713 8.61457C9.57881 8.72766 9.52064 8.83048 9.43314 8.90443C9.34564 8.97838 9.23457 9.0186 9.12 9.01781C8.97312 9.01781 9.28704 9.08981 3.20832 7.07285C3.08745 7.03262 2.9875 6.94602 2.93048 6.83211C2.87345 6.71819 2.86401 6.58629 2.90424 6.46541C2.94447 6.34454 3.03107 6.24459 3.14498 6.18757C3.2589 6.13054 3.39081 6.1211 3.51168 6.16133V6.16133ZM3.51168 8.56133L9.27168 10.4813C9.38064 10.5167 9.47334 10.59 9.53302 10.6878C9.59271 10.7856 9.61545 10.9015 9.59713 11.0146C9.57881 11.1277 9.52064 11.2305 9.43314 11.3044C9.34564 11.3784 9.23457 11.4186 9.12 11.4178C8.97312 11.4178 9.28704 11.4898 3.20832 9.47285C3.08745 9.43262 2.9875 9.34602 2.93048 9.23211C2.87345 9.11819 2.86401 8.98629 2.90424 8.86541C2.94447 8.74454 3.03107 8.64459 3.14498 8.58757C3.2589 8.53054 3.39081 8.5211 3.51168 8.56133V8.56133ZM3.51168 10.9613L9.27168 12.8813C9.38064 12.9167 9.47334 12.99 9.53302 13.0878C9.59271 13.1856 9.61545 13.3015 9.59713 13.4146C9.57881 13.5277 9.52064 13.6305 9.43314 13.7044C9.34564 13.7784 9.23457 13.8186 9.12 13.8178C8.97312 13.8178 9.28704 13.8898 3.20832 11.8729C3.08745 11.8326 2.9875 11.746 2.93048 11.6321C2.87345 11.5182 2.86401 11.3863 2.90424 11.2654C2.94447 11.1445 3.03107 11.0446 3.14498 10.9876C3.2589 10.9305 3.39081 10.9211 3.51168 10.9613ZM9.12 16.2178C8.97312 16.2178 9.28704 16.2898 3.20832 14.2729C3.08738 14.2326 2.98738 14.146 2.93031 14.032C2.87323 13.9181 2.86377 13.7861 2.904 13.6652C2.94423 13.5442 3.03085 13.4442 3.14481 13.3872C3.25878 13.3301 3.39074 13.3206 3.51168 13.3609L9.27168 15.2809C9.38101 15.316 9.47412 15.3892 9.53412 15.4871C9.59411 15.585 9.61701 15.7012 9.59866 15.8145C9.58031 15.9279 9.52192 16.0309 9.4341 16.1049C9.34627 16.1789 9.23483 16.219 9.12 16.2178ZM14.7283 8.08133L20.4883 6.16133C20.5482 6.14141 20.6114 6.13348 20.6744 6.138C20.7373 6.14251 20.7988 6.15938 20.8552 6.18764C20.9116 6.21589 20.9619 6.25499 21.0032 6.30269C21.0446 6.35039 21.0761 6.40577 21.096 6.46565C21.1159 6.52553 21.1238 6.58875 21.1193 6.6517C21.1148 6.71465 21.098 6.77609 21.0697 6.83252C21.0414 6.88895 21.0023 6.93926 20.9546 6.98057C20.9069 7.02189 20.8516 7.05341 20.7917 7.07333C14.7134 9.08933 15.024 9.01781 14.88 9.01781C14.7654 9.0186 14.6544 8.97838 14.5669 8.90443C14.4794 8.83048 14.4212 8.72766 14.4029 8.61457C14.3846 8.50147 14.4073 8.38555 14.467 8.28776C14.5267 8.18997 14.6194 8.11675 14.7283 8.08133V8.08133ZM14.7283 10.4813L20.4883 8.56133C20.6093 8.5211 20.7412 8.53056 20.8552 8.58764C20.9691 8.64471 21.0558 8.74471 21.096 8.86565C21.1362 8.98659 21.1268 9.11856 21.0697 9.23252C21.0126 9.34648 20.9126 9.4331 20.7917 9.47333C14.7134 11.4893 15.024 11.4178 14.88 11.4178C14.7654 11.4186 14.6544 11.3784 14.5669 11.3044C14.4794 11.2305 14.4212 11.1277 14.4029 11.0146C14.3846 10.9015 14.4073 10.7856 14.467 10.6878C14.5267 10.59 14.6194 10.5167 14.7283 10.4813ZM14.7283 12.8813L20.4883 10.9613C20.6093 10.9211 20.7412 10.9306 20.8552 10.9876C20.9691 11.0447 21.0558 11.1447 21.096 11.2657C21.1362 11.3866 21.1268 11.5186 21.0697 11.6325C21.0126 11.7465 20.9126 11.8331 20.7917 11.8733C14.7134 13.8893 15.024 13.8178 14.88 13.8178C14.7654 13.8186 14.6544 13.7784 14.5669 13.7044C14.4794 13.6305 14.4212 13.5277 14.4029 13.4146C14.3846 13.3015 14.4073 13.1856 14.467 13.0878C14.5267 12.99 14.6194 12.9167 14.7283 12.8813ZM20.7917 14.2733C14.7134 16.2893 15.024 16.2178 14.88 16.2178C14.766 16.2179 14.6556 16.1774 14.5687 16.1035C14.4818 16.0296 14.4241 15.9272 14.4058 15.8146C14.3876 15.7021 14.41 15.5867 14.4691 15.4891C14.5282 15.3916 14.6201 15.3182 14.7283 15.2823L20.4883 13.3623C20.6091 13.3221 20.741 13.3315 20.8548 13.3885C20.9687 13.4454 21.0553 13.5453 21.0955 13.6661C21.1357 13.7869 21.1263 13.9188 21.0694 14.0327C21.0124 14.1465 20.9125 14.2331 20.7917 14.2733V14.2733Z" fill="#202224" />
</svg>
