<svg viewBox="0 0 24 24" >
<path d="M12 0C9.62663 0 7.30655 0.703788 5.33316 2.02236C3.35977 3.34094 1.8217 5.21508 0.913451 7.4078C0.00519936 9.60051 -0.232441 12.0133 0.230582 14.3411C0.693605 16.6689 1.83649 18.807 3.51472 20.4853C5.19295 22.1635 7.33115 23.3064 9.65892 23.7694C11.9867 24.2324 14.3995 23.9948 16.5922 23.0866C18.7849 22.1783 20.6591 20.6402 21.9776 18.6668C23.2962 16.6934 24 14.3734 24 12C23.9965 8.81847 22.7311 5.76824 20.4814 3.51856C18.2318 1.26888 15.1815 0.00347882 12 0V0ZM5.71429 20.836V19.4286C5.71429 17.7615 6.37653 16.1627 7.55533 14.9839C8.73413 13.8051 10.3329 13.1429 12 13.1429C13.6671 13.1429 15.2659 13.8051 16.4447 14.9839C17.6235 16.1627 18.2857 17.7615 18.2857 19.4286V20.836C16.4533 22.1503 14.255 22.8572 12 22.8572C9.74498 22.8572 7.54669 22.1503 5.71429 20.836V20.836ZM8.57143 8.57143C8.57143 7.89332 8.77252 7.23044 9.14925 6.66662C9.52599 6.10279 10.0615 5.66334 10.6879 5.40384C11.3144 5.14434 12.0038 5.07644 12.6689 5.20874C13.334 5.34103 13.9449 5.66757 14.4244 6.14706C14.9039 6.62656 15.2304 7.23747 15.3627 7.90255C15.495 8.56762 15.4271 9.257 15.1676 9.88348C14.9081 10.51 14.4686 11.0454 13.9048 11.4222C13.341 11.7989 12.6781 12 12 12C11.091 11.9991 10.2194 11.6376 9.57664 10.9948C8.93385 10.352 8.57234 9.48046 8.57143 8.57143ZM19.4286 19.896V19.4286C19.426 17.8894 18.9458 16.389 18.0542 15.1343C17.1626 13.8797 15.9036 12.9327 14.4509 12.424C15.2864 11.8933 15.9271 11.1058 16.2767 10.1798C16.6264 9.25383 16.666 8.23937 16.3897 7.28892C16.1134 6.33846 15.536 5.50337 14.7445 4.90914C13.9529 4.31491 12.9898 3.99365 12 3.99365C11.0102 3.99365 10.0471 4.31491 9.25555 4.90914C8.46396 5.50337 7.88663 6.33846 7.61032 7.28892C7.334 8.23937 7.37363 9.25383 7.72326 10.1798C8.07289 11.1058 8.71361 11.8933 9.54915 12.424C8.09646 12.9327 6.83745 13.8797 5.94585 15.1343C5.05425 16.389 4.57403 17.8894 4.57143 19.4286V19.896C2.98391 18.4066 1.88075 16.4744 1.40516 14.3501C0.929563 12.2259 1.10349 10.0077 1.90437 7.9836C2.70524 5.95946 4.09608 4.22279 5.89635 2.99903C7.69662 1.77526 9.82318 1.12091 12 1.12091C14.1768 1.12091 16.3034 1.77526 18.1037 2.99903C19.9039 4.22279 21.2948 5.95946 22.0956 7.9836C22.8965 10.0077 23.0704 12.2259 22.5948 14.3501C22.1193 16.4744 21.0161 18.4066 19.4286 19.896V19.896Z" fill="#202224"/>
</svg>
